# xmcd
#
# Track frame offsets: 
#        225
#        12190
#        24392
#        34717
#        46302
#        59960
#        74060
#        87147
#        98670
#        112840
#
# Disc length: 1621 seconds
#
# Revision: 0
# Processed by: cddbd v1.4PL0 Copyright (c) Steve Scherf et al.
# Submitted via: ExactAudioCopy v0.90b4
#
DISCID=7e06520a
DTITLE=Meade "Lux" Lewis - Tidal Boogie
DYEAR=1996
DGENRE=Blues
TTITLE0=How Long Blues
TTITLE1=Someday Sweetheart
TTITLE2=Mike
TTITLE3=Darktown Strutters Ball
TTITLE4=Birth of the Blues
TTITLE5=Tidal Boogie
TTITLE6=Mardi Gras Drag
TTITLE7=Jada
TTITLE8=Basin Street Blues
TTITLE9=Bugle Call Rag
EXTD=
EXTT0=
EXTT1=
EXTT2=
EXTT3=
EXTT4=
EXTT5=
EXTT6=
EXTT7=
EXTT8=
EXTT9=
PLAYORDER=
